# xmcd
#
# Track frame offsets: 
#        150
#        15072
#        29172
#        45610
#        60660
#        70904
#        82527
#        95861
#        105909
#        130768
#        143746
#        166929
#        179380
#        191793
#        206481
#        216944
#        229418
#        255009
#
# Disc length: 3562 seconds
#
# Revision: 0
# Processed by: cddbd v1.5.2PL0 Copyright (c) Steve Scherf et al.
# Submitted via: ExactAudioCopy v0.99pb4
#
DISCID=ed0de812
DTITLE=Mick Jagger and The Red Devils - Studio Blues Sessions
DYEAR=1992
DGENRE=Blues
TTITLE0=Blues With A Feeling
TTITLE1=You Better Watch Yourself
TTITLE2=Still A Fool
TTITLE3=Checkin'up On My Baby
TTITLE4=One Way Out
TTITLE5=Talk To Me Baby
TTITLE6=Evil
TTITLE7=That Ain't Your Business
TTITLE8=Shake'em On Down
TTITLE9=Don't Go No Further
TTITLE10=Dream Girl Blues
TTITLE11=40 Days 40 Nights
TTITLE12=Mean Old World
TTITLE13=Blues With A Feeling
TTITLE14=One Way Out
TTITLE15=Evil
TTITLE16=Dream Girl Blues
TTITLE17=40 Days 40 Nights
EXTD=
EXTT0=
EXTT1=
EXTT2=
EXTT3=
EXTT4=
EXTT5=
EXTT6=
EXTT7=
EXTT8=
EXTT9=
EXTT10=
EXTT11=
EXTT12=
EXTT13=
EXTT14=
EXTT15=
EXTT16=
EXTT17=
PLAYORDER=
